<svg id="Capa_1" data-name="Capa 1" xmlns="http://www.w3.org/2000/svg" viewBox="0 0 446.11 182.01"><defs><style>.cls-1{fill:#313131;}.cls-2{fill:#303030;}.cls-3{fill:#f79b22;}.cls-4{fill:#f79b23;}.cls-5{fill:#373737;}.cls-6{fill:#424242;}.cls-7{fill:#343434;}.cls-8{fill:#3d3d3d;}.cls-9{fill:#474747;}.cls-10{fill:#f9f9f9;}.cls-11{fill:#f4f4f4;}.cls-12{fill:#e9e9e9;}</style></defs><path class="cls-1" d="M302,372.55c6.11-5.71,12.33-7.4,19.3-6.77,10.9,1,18.15,8.11,18.71,19.07.38,7.64.23,15.3.15,23-.1,8.57-3,15.85-11.33,19.46-8.57,3.71-17,3-24.35-3.13-2.77-2.32-4.19-2.44-5.69.85-1.08,2.37-2.91,3-5.58,3.13-3.5.15-4.08-1.19-4.06-4.29.13-16.47.06-32.94.06-49.41,0-8.32.13-16.65-.07-25-.07-3.15.62-4.36,4.08-4.32,8.78.1,8.78-.08,8.78,8.52Zm0,24.72c0,2.66,0,5.32,0,8,.15,8,4.72,12.31,13,12.42,7.39.09,12.41-4.77,12.62-12.4.13-4.81.08-9.63,0-14.45-.1-8.46-5-13.67-12.52-13.51-8.43.18-13,4.93-13.11,13.5C301.93,393,301.94,395.11,302,397.27Z" transform="translate(-82.73 -302.04)"/><path class="cls-1" d="M241,372.27c0-8.41.12-16-.07-23.64-.06-2.68.81-3.31,3.37-3.38,9.41-.28,9.4-.38,9.4,8.83,0,23,0,45.93-.08,68.9,0,1.63,1.6,4.52-1.5,4.89-2.55.31-5.71,1.33-7.48-2.12a34,34,0,0,0-3-4.2c-5.7,5.93-12.43,8.5-20.42,7.68-10.16-1.05-17.46-7.86-18.07-18.07a208.62,208.62,0,0,1,0-26.93c1.14-16.05,19.54-24.16,33.58-15.12C237.91,369.91,239.06,370.85,241,372.27Zm0,25.33c0-2.49,0-5,0-7.47-.12-8-5.12-12.76-13.34-12.76-7.28,0-12.16,5-12.32,12.71-.1,4.81-.07,9.63,0,14.45.09,8.12,4.8,13.11,12.38,13.18,8.56.08,13.21-4.51,13.29-13.14C241,402.25,241,399.92,241,397.6Z" transform="translate(-82.73 -302.04)"/><path class="cls-1" d="M402.94,401.85c-5.16,0-10.32.14-15.47-.06-2.69-.1-3.32.9-3.34,3.43-.1,9.93,8.77,15.14,19.82,11.44a29.25,29.25,0,0,0,4-2c1.77-.9,2.67-3.95,4.53-3.43,2.62.74,4.86,2.79,7.29,4.22,1.31.77,1.45,1.68.63,2.87-.19.27-.35.57-.51.85-4.93,8.32-18.33,12.33-31.06,9.31-11-2.6-17.07-9.59-17.51-20.66-.28-6.81-.28-13.65,0-20.46.4-10.51,6.39-17.68,16.57-20.5a36.52,36.52,0,0,1,16.33-.62c11.29,2,17.64,9.47,18.33,21,.88,14.57.88,14.57-13.61,14.57Zm-6.13-9.91c3.33,0,6.65-.08,10,0,2.14.07,2.85-.7,2.91-2.87.18-7.08-4.51-11.6-12.49-11.77S384,381.77,384.08,389c0,2.55,1.05,3.08,3.27,3C390.5,391.85,393.66,392,396.81,391.94Z" transform="translate(-82.73 -302.04)"/><path class="cls-2" d="M133.92,405.2c0,6.15.08,12.31,0,18.46,0,1.45,1.08,3.86-1.29,4.16s-5,1.22-7-.93a14.91,14.91,0,0,1-2.07-2.8c-1.28-2.27-2.32-2.38-4.44-.56-7.16,6.14-15.54,7.23-24.36,4.59-6.83-2.05-10.92-6.73-11.77-14-.88-7.46,1.52-13.48,8-17.46s13.66-5,21.1-4.8a6.54,6.54,0,0,0,2,0c2.28-.71,6,2,6.77-1.76.84-3.92.2-8-3.62-10.71-4.76-3.33-14.86-2.79-18.51,1.76-2.81,3.51-4.68,2.6-7.62.62-6-4-6.23-5-.85-9.92,8.58-7.86,27.78-8.4,36.86-1,4.73,3.84,6.71,9,6.83,14.91C134,392.22,133.92,398.71,133.92,405.2ZM115.18,401c-6.28.18-12.33,1.54-15.21,3.37-4.86,3.08-5,8.81-.24,11.72,5.4,3.32,15.66,1.37,19.59-3.63,2.53-3.25,2.14-7.11,1.33-10.47C120.12,399.74,116.83,401.46,115.18,401Z" transform="translate(-82.73 -302.04)"/><path class="cls-1" d="M193.94,397.53c0,8.65.05,17.31-.05,26,0,1.48,1.07,3.93-1.14,4.26-2.41.37-5.84,1.73-7.32-1.15-2.74-5.33-4.9-4-9-1.1-14.49,10.14-32.64,1.28-33.43-16.31-.58-13-.13-26-.3-38.95,0-2.74,1-3.23,3.47-3.27,9.51-.17,9.51-.26,9.51,9.27s0,19,0,28.47c0,5,1.28,9.28,6.25,11.49a15.26,15.26,0,0,0,15.21-1.16c3.1-2,3.93-5.07,3.9-8.65-.1-11.65.09-23.31-.12-35-.06-3.41.72-4.57,4.34-4.49,8.69.2,8.7,0,8.7,8.6Z" transform="translate(-82.73 -302.04)"/><path class="cls-3" d="M528.17,331.36c1.84,7.47,0,11.82-6.5,15.61-18.67,10.91-36.86,22.66-55.15,34.22-2.74,1.74-4.68,2-7.58.12-18.26-11.6-36.46-23.3-55.13-34.21-6.45-3.77-8.34-8.13-6.74-15.17,2.18.29,3.79,1.77,5.52,2.85,18.79,11.69,37.59,23.36,56.27,35.23,2.82,1.79,4.75,1.79,7.55,0,18.69-11.86,37.49-23.52,56.26-35.25C524.34,333.72,526,332.69,528.17,331.36Z" transform="translate(-82.73 -302.04)"/><path class="cls-1" d="M361.91,386.77c0,12.31-.14,24.62.08,36.92.06,3.53-.95,4.49-4.44,4.42-8.6-.16-8.61,0-8.61-8.59,0-23.12.09-46.24-.09-69.36,0-3.88.91-5.11,4.91-5,8.14.29,8.15.06,8.15,8.16Z" transform="translate(-82.73 -302.04)"/><path class="cls-4" d="M415.22,323.77c10.59-11.47,23-19.12,38.37-21.09,24-3.09,43.42,5.13,58.56,23.92,2.21,2.74,1.64,4.24-1.25,5.58a11.13,11.13,0,0,0-2.54,1.58c-2.83,2.35-4.6,1.93-7.11-1.1-21-25.42-54.92-29.62-81.86-10.42C418.22,323.08,417.23,324.42,415.22,323.77Z" transform="translate(-82.73 -302.04)"/><path class="cls-1" d="M278.09,397.83c0,8.81-.15,17.62.08,26.43.09,3.2-1,3.84-3.95,3.84-9.09,0-9.09.13-9.09-9.15,0-15.79.08-31.58-.06-47.37,0-3.22.43-4.72,4.23-4.65,8.79.18,8.79,0,8.79,9Z" transform="translate(-82.73 -302.04)"/><path class="cls-4" d="M430.39,335.84c16.66-20.5,50.23-19.77,66,1.32,1.63,2.19,1.54,3.36-.83,4.56a20.33,20.33,0,0,0-3.81,2.35c-2.23,1.86-3.6,1.5-5.64-.73-14.09-15.4-33.36-18.57-51.61-8.78C433.22,335.24,432.11,336.5,430.39,335.84Z" transform="translate(-82.73 -302.04)"/><path class="cls-5" d="M157,460.58c0-1.66.09-3.33,0-5-.24-3.55.32-4.29,4.72-4.65s8.68,2.78,13.28-.07c2.58-1.61,5.81.25,6.14,3.73.42,4.44.11,9,.18,13.44,0,1.93-1.12,2.05-2.6,2.08s-2.5-.53-2.48-2.27c0-3.16,0-6.32,0-9.47,0-1.47.08-3.29-2.13-3.18-1.94.1-2.21,1.73-2.24,3.29-.05,3-.07,6,0,9,0,1.86-.68,2.66-2.63,2.68s-2.56-.89-2.52-2.71c.06-3.15.06-6.31-.06-9.46-.05-1.34-.45-2.79-2.2-2.75s-2.23,1.3-2.27,2.73c-.09,3.16-.16,6.32-.07,9.47.05,1.86-.49,2.75-2.5,2.73-1.86,0-2.73-.59-2.61-2.6C157.1,465.24,157,462.91,157,460.58Z" transform="translate(-82.73 -302.04)"/><path class="cls-4" d="M445,348c8.79-10.66,26.07-11,35.2-.79,1.79,2,1.69,2.92-.54,4.55-4.16,3-7.18,4-11.51-.52-5.11-5.4-12.17-6.45-19.45-4.17-1.23.38-2.33,1.4-3.78.87Z" transform="translate(-82.73 -302.04)"/><path class="cls-5" d="M184.39,465c.17-4,2.67-5.73,6.26-6.63,1.43-.36,3.55.61,4.21-1.65a1.84,1.84,0,0,0-1-2.09c-1.91-1.19-3,0-4.14,1.38a2.72,2.72,0,0,1-4,.11c-1.46-1.48.16-2.84,1.17-3.7,2.92-2.46,6.3-2.75,9.85-1.45,3.35,1.22,3.41,4.05,3.51,7,.09,2.77-.44,5.55.85,8.32,1.09,2.35-2.31,3.94-2.7,3.57-2.72-2.57-4.81.16-7.11.42C187.18,470.71,184.46,468.69,184.39,465Zm10.69-2.86c.18-1.14-.84-1.38-2.15-1.16-1.79.3-3,1.21-3.05,3.19,0,1.47.61,2.74,2.25,2.5C194.23,466.34,194.9,464.64,195.08,462.13Z" transform="translate(-82.73 -302.04)"/><path class="cls-5" d="M238.86,460.3c0-1.17-.06-2.34,0-3.5.2-3.3-1.32-8.6,5.31-4.75.1.06.29-.06.45-.07,9-.88,9.17-.75,9.17,8.22,0,2.33-.1,4.67,0,7,.12,2.09-.52,3-2.77,3s-2.34-1.21-2.33-2.88c0-3.16,0-6.32-.12-9.48,0-1.19-.44-2.49-1.83-2.62a2.41,2.41,0,0,0-2.64,2.45c-.21,3.15-.22,6.32-.17,9.48,0,2-.45,3.09-2.76,3-2.15-.05-2.41-1.18-2.36-2.88C238.91,465,238.86,462.63,238.86,460.3Z" transform="translate(-82.73 -302.04)"/><path class="cls-5" d="M145,450.22c5.56.06,7.71,2.24,8,7,.17,3.1-.38,6.19.86,9.33.79,2-2.12,4-3.07,3.2-2.35-1.9-3.79-.24-5.69.21-3.3.79-6.61.6-7.7-3.35-1-3.76.66-6.48,4.4-7.74,1.1-.37,2.27-.51,3.4-.78.89-.21,2.23.19,2.39-1.14a3.2,3.2,0,0,0-.85-2.19c-.92-1-2.09-.81-3.12,0a7.58,7.58,0,0,0-1,1.1,2.66,2.66,0,0,1-4.3.09c-1.13-1.43.42-2.77,1.5-3.73A8.87,8.87,0,0,1,145,450.22Zm2.8,12.53c.13-1.57-.66-1.92-1.81-1.83-2.1.17-3.48,1.32-3.51,3.39,0,1.3.76,2.72,2.48,2.36C147.1,466.22,147.54,464.38,147.81,462.75Z" transform="translate(-82.73 -302.04)"/><path class="cls-6" d="M335,461.76c0,1.83.05,3.66,0,5.49,0,1.09.27,2.64-1.5,2.53s-1.37-1.6-1.38-2.71c0-2.83,0-5.65,0-8.48,0-2.38.07-5.06-3.17-5.21s-5,1.83-5.23,4.87c-.24,2.81,0,5.65-.17,8.47-.06,1.17.59,3.13-1.47,3s-1.21-2-1.25-3.2c-.1-2.66,0-5.33-.05-8-.05-2.4-.24-5-3.37-5.17s-4.81,2.16-5.18,5-.07,5.64-.2,8.47c-.05,1.15.66,3-1.53,2.93-1.63-.08-1.34-1.63-1.35-2.73q0-6.48,0-13c0-1.6-.4-4.1,2.35-1.48,1.15,1.1,1.72-.17,2.45-.63,3.36-2.11,5.91-.21,9.1.88,2,.67,5.25-3,8.58-1.67a5.11,5.11,0,0,1,3.29,4.62c.15,2,0,4,0,6Z" transform="translate(-82.73 -302.04)"/><path class="cls-5" d="M155.22,473.63c17.91,7.37,36,9.08,55,1.07C201.68,487.73,172.3,486.92,155.22,473.63Z" transform="translate(-82.73 -302.04)"/><path class="cls-7" d="M219.86,460c.17-5.94,3.59-9.77,8.5-9.52s8.06,4.55,7.8,10.75c-.23,5.55-3.6,9.31-8.3,9.26C222.84,470.41,219.68,466.26,219.86,460Zm11-.07c-.36-1.85.49-5.45-2.82-5.5s-2.8,3.43-3,5.84a8.24,8.24,0,0,0,0,1.49c.29,2.1.18,4.92,3.06,4.81,2.42-.09,2.49-2.68,2.68-4.68C230.93,461.37,230.89,460.87,230.89,459.9Z" transform="translate(-82.73 -302.04)"/><path class="cls-5" d="M210.77,455.09c-1.47-.1-2.28-.18-3.09-.21-1.47-.05-3.15.27-3.21-2s1.63-2.15,3.1-2c3.37.33,8.14-1.68,9.78,1,2,3.19-2.75,5.77-4.25,8.77-.43.85-1,1.63-1.69,2.76l4.45,1.12a2.74,2.74,0,0,1,2.15,3.77c-.65,2.2-2.21.69-3.22.43a12.85,12.85,0,0,0-7.81.1c-4.54,1.62-3.54-1.92-2.79-3.58,1.28-2.82,3.4-5.25,5.16-7.84C209.71,456.86,210,456.31,210.77,455.09Z" transform="translate(-82.73 -302.04)"/><path class="cls-8" d="M343.64,468.77c0,2.39,0,4.5,0,6.61a1.35,1.35,0,0,1-1.64,1.39c-.84-.09-1-.75-1-1.42,0-7.48,0-15,0-22.45,0-.7.66-1.7.91-1.41,2.64,3,4.51-.7,6.81-.7,3.06,0,5.72.61,7.26,3.37a12.45,12.45,0,0,1,.08,12.39,6.61,6.61,0,0,1-7.09,3.6A43.11,43.11,0,0,1,343.64,468.77Zm0-8.18c.14,3.42.79,6.87,5.4,7.24,3.34.26,5.65-2.86,5.68-7.33s-2.38-7.6-5.7-7.26C344.83,453.65,343.69,456.64,343.62,460.59Z" transform="translate(-82.73 -302.04)"/><path class="cls-9" d="M376.75,462.39a33.14,33.14,0,0,1-.05,4.46c-.17,1.31.86,5-2.54,1.64-1.24-1.21-1.94.58-2.88.94-3,1.15-5.88,1.25-8.41-.88a5,5,0,0,1-1.54-5.43c.94-3.23,3.6-4.05,6.52-4.42a7.14,7.14,0,0,0,1.48-.19c1.43-.49,3.53.68,4.28-1.45a2.79,2.79,0,0,0-1.28-3c-1.76-1.34-3.66-1.08-5.63-.3-1.43.57-1.62,3.28-3.89,2.22a1.28,1.28,0,0,1-.36-1.17c.75-2.28,2.52-3.37,4.77-3.83,5.89-1.2,9.25,1.42,9.5,7.46.06,1.33,0,2.65,0,4Zm-6.37-1.64c-2.14.56-6-.57-6.23,3.94-.12,2.22,1.66,3.15,3.71,3.14,3.27,0,5.31-1.65,5.88-4.93C374.15,460.48,372.49,460.66,370.38,460.75Z" transform="translate(-82.73 -302.04)"/><path class="cls-7" d="M279,352.4a7.57,7.57,0,0,1-7.22,7.45,7.74,7.74,0,0,1-7.57-7.67,7.57,7.57,0,0,1,7.54-7.13A7.36,7.36,0,0,1,279,352.4Z" transform="translate(-82.73 -302.04)"/><path class="cls-8" d="M101.39,470.35c-2-1.34-3-3.22-5-1.24-1.61,1.59-4.09,1.29-6.2.77a5.11,5.11,0,0,1-4.12-5c-.15-2.42.82-4.3,3.1-5.14,1.69-.62,3.55-.74,5.29-1.24,1.47-.43,4.23.89,3.93-2.19s-2.7-3.44-5.23-3.16a3.65,3.65,0,0,0-2.9,1.69c-.7,1.21-1.78,1.95-2.75.89s.27-2.17,1-2.93c2.56-2.53,5.79-2.39,8.88-1.59,2.72.71,3.89,3,3.92,5.72C101.42,461.07,101.39,465.19,101.39,470.35Zm-6.16-9.68c-2.25.57-5.77-.37-6.18,3.66-.29,2.84,1.84,3.66,4.22,3.51a5.32,5.32,0,0,0,5.39-5.33C98.87,460,96.88,460.84,95.23,460.67Z" transform="translate(-82.73 -302.04)"/><path class="cls-9" d="M107.45,460.34a27.65,27.65,0,0,1,.07-5c.25-1.32-1.77-6.28,3-2.35.25.21,1.54-.92,2.39-1.32,5.5-2.55,9.65-.12,10,6,.18,3.15.08,6.32,0,9.49,0,1.07.37,2.57-1.39,2.65s-1.52-1.4-1.53-2.5c0-3,0-6,0-9,0-2.36-.56-4.45-3.25-4.83a4.91,4.91,0,0,0-5.77,3.62c-1.07,3.08-.42,6.28-.66,9.41-.08,1.18.75,3.14-1.2,3.23-2.41.1-1.51-2.1-1.6-3.4C107.35,464.34,107.45,462.33,107.45,460.34Z" transform="translate(-82.73 -302.04)"/><path class="cls-6" d="M410.28,466.09c1.82-4.86,3.24-8.69,4.71-12.5.46-1.21.91-2.88,2.65-2.21s.45,2,.1,2.95c-2.37,6.18-4.87,12.32-7.3,18.48-1.17,2.95-3.06,4.71-6.46,4.09-.71-.13-1.31-.5-1.29-1.25s.37-1.08,1.21-1.22c5.64-1,5.2-4.41,3.38-8.47a106.56,106.56,0,0,1-4.17-10.09c-.46-1.39-3-3.49-.33-4.45,2.3-.83,2.36,2.22,3,3.71C407.32,458.4,408.55,461.79,410.28,466.09Z" transform="translate(-82.73 -302.04)"/><path class="cls-8" d="M382.73,450.81c2,1.59,3.09,2.36,5.29,1.08,5.2-3.05,9.63-.28,9.89,5.69.13,3.14.07,6.3,0,9.45,0,1,.52,2.65-1.23,2.71-2.11.08-1.56-1.72-1.59-2.93-.07-2.82,0-5.64,0-8.46,0-2.55-.57-4.78-3.6-5a5,5,0,0,0-5.52,4c-.89,3.26-.43,6.6-.58,9.9,0,1.07.31,2.64-1.52,2.46-1.32-.13-1.1-1.43-1.1-2.38C382.72,462.11,382.73,456.84,382.73,450.81Z" transform="translate(-82.73 -302.04)"/><path class="cls-6" d="M304.12,460.32c.05,6.18-3.18,9.9-8.59,9.91-5.15,0-8.42-3.65-8.5-9.51s3.37-9.94,8.66-9.93S304.07,454.39,304.12,460.32Zm-14.18.24c.18,3.73,1.14,7.2,5.66,7.2s5.58-3.46,5.59-7.24-1-7.24-5.58-7.22S290.09,456.73,289.94,460.56Z" transform="translate(-82.73 -302.04)"/><path class="cls-8" d="M270.17,460.56c.21,2.93.63,5.85,3.8,7,2.63.92,4.91.15,6.12-2.66.46-1.05,1.35-1.65,2.35-1.1,1.2.65.5,1.72.09,2.59-1.53,3.28-6.07,4.85-9.9,3.44-4-1.47-6.2-6.49-5.05-11.75s4.32-7.63,9.09-7.21a6.24,6.24,0,0,1,4.41,2c1,1.16,3,2.65,1.33,4.08s-2.23-1-3.11-2a4.48,4.48,0,0,0-5.39-1.29C270.68,454.85,270.41,457.72,270.17,460.56Z" transform="translate(-82.73 -302.04)"/><path class="cls-6" d="M211.37,480.8c.73-7.16.73-7.16-7.47-7.71,3.79-2.6,7.43-3.21,10.88-1.31C216.77,472.88,214.62,478.27,211.37,480.8Z" transform="translate(-82.73 -302.04)"/><path class="cls-4" d="M444.88,348l-.32.55c0-.09,0-.23,0-.27A1.79,1.79,0,0,1,445,348Z" transform="translate(-82.73 -302.04)"/><path class="cls-10" d="M302,397.27c0-2.16,0-4.31,0-6.47.07-8.57,4.68-13.32,13.11-13.5,7.56-.16,12.42,5.05,12.52,13.51.06,4.82.11,9.64,0,14.45-.21,7.63-5.23,12.49-12.62,12.4-8.26-.11-12.83-4.46-13-12.42C301.91,402.59,302,399.93,302,397.27Z" transform="translate(-82.73 -302.04)"/><path class="cls-10" d="M241,397.6c0,2.32,0,4.65,0,7-.08,8.63-4.73,13.22-13.29,13.14-7.58-.07-12.29-5.06-12.38-13.18-.06-4.82-.09-9.64,0-14.45.16-7.74,5-12.71,12.32-12.71,8.22,0,13.22,4.77,13.34,12.76C241.05,392.62,241,395.11,241,397.6Z" transform="translate(-82.73 -302.04)"/><path class="cls-11" d="M396.81,392c-3.15,0-6.31-.1-9.46,0-2.22.09-3.25-.44-3.27-3-.05-7.22,5-11.83,13.12-11.65s12.67,4.69,12.49,11.77c-.06,2.17-.77,2.94-2.91,2.87C403.46,391.86,400.14,391.94,396.81,392Z" transform="translate(-82.73 -302.04)"/><path class="cls-10" d="M115.18,401c1.65.51,4.94-1.21,5.47,1,.81,3.36,1.2,7.22-1.33,10.47-3.93,5-14.19,6.95-19.59,3.63-4.74-2.91-4.62-8.64.24-11.72C102.85,402.49,108.9,401.13,115.18,401Z" transform="translate(-82.73 -302.04)"/><path class="cls-12" d="M195.08,462.13c-.18,2.51-.85,4.21-3,4.53-1.64.24-2.26-1-2.25-2.5,0-2,1.26-2.89,3.05-3.19C194.24,460.75,195.26,461,195.08,462.13Z" transform="translate(-82.73 -302.04)"/><path class="cls-12" d="M147.81,462.75c-.27,1.63-.71,3.47-2.84,3.92-1.72.36-2.5-1.06-2.48-2.36,0-2.07,1.41-3.22,3.51-3.39C147.15,460.83,147.94,461.18,147.81,462.75Z" transform="translate(-82.73 -302.04)"/><path class="cls-12" d="M230.89,459.9c0,1,0,1.47,0,2-.19,2-.26,4.59-2.68,4.68-2.88.11-2.77-2.71-3.06-4.81a8.24,8.24,0,0,1,0-1.49c.16-2.41-.32-5.88,3-5.84S230.53,458.05,230.89,459.9Z" transform="translate(-82.73 -302.04)"/><path class="cls-11" d="M343.62,460.59c.07-3.95,1.21-6.94,5.38-7.35,3.32-.34,5.73,2.88,5.7,7.26s-2.34,7.59-5.68,7.33C344.41,467.46,343.76,464,343.62,460.59Z" transform="translate(-82.73 -302.04)"/><path class="cls-11" d="M370.38,460.75c2.11-.09,3.77-.27,3.36,2.15-.57,3.28-2.61,4.92-5.88,4.93-2.05,0-3.83-.92-3.71-3.14C364.39,460.18,368.24,461.31,370.38,460.75Z" transform="translate(-82.73 -302.04)"/><path class="cls-11" d="M95.23,460.67c1.65.17,3.64-.68,3.43,1.84a5.32,5.32,0,0,1-5.39,5.33c-2.38.15-4.51-.67-4.22-3.51C89.46,460.3,93,461.24,95.23,460.67Z" transform="translate(-82.73 -302.04)"/><path class="cls-11" d="M289.94,460.56c.15-3.83,1.16-7.24,5.67-7.26s5.59,3.43,5.58,7.22-1.05,7.25-5.59,7.24S290.12,464.29,289.94,460.56Z" transform="translate(-82.73 -302.04)"/></svg>